REM DIRINDEX 1\2,1\3
REM DIRNAME cjc039,folder01,folder02
TITLE ""
FILE "2941-2960.mp3" MP3
  TRACK 01 AUDIO
    TITLE "0:"
    INDEX 01 00:00:00
  TRACK 02 AUDIO
    TITLE "2:cjc039_4881"
    INDEX 01 00:00:23
  TRACK 03 AUDIO
    TITLE "0:"
    INDEX 01 00:01:56
  TRACK 04 AUDIO
    TITLE "3:cjc039_4882"
    INDEX 01 00:02:34
  TRACK 05 AUDIO
    TITLE "0:"
    INDEX 01 00:06:55
  TRACK 06 AUDIO
    TITLE "2:cjc039_4883"
    INDEX 01 00:08:30
  TRACK 07 AUDIO
    TITLE "0:"
    INDEX 01 00:10:14
  TRACK 08 AUDIO
    TITLE "3:cjc039_4884"
    INDEX 01 00:10:59
  TRACK 09 AUDIO
    TITLE "0:"
    INDEX 01 00:15:38
  TRACK 10 AUDIO
    TITLE "2:cjc039_4885"
    INDEX 01 00:17:14
  TRACK 11 AUDIO
    TITLE "0:"
    INDEX 01 00:18:37
  TRACK 12 AUDIO
    TITLE "3:cjc039_4886"
    INDEX 01 00:19:13
  TRACK 13 AUDIO
    TITLE "0:"
    INDEX 01 00:21:74
  TRACK 14 AUDIO
    TITLE "2:cjc039_4887"
    INDEX 01 00:23:48
  TRACK 15 AUDIO
    TITLE "0:"
    INDEX 01 00:25:05
  TRACK 16 AUDIO
    TITLE "3:cjc039_4888"
    INDEX 01 00:25:50
  TRACK 17 AUDIO
    TITLE "0:"
    INDEX 01 00:29:13
  TRACK 18 AUDIO
    TITLE "2:cjc039_4889"
    INDEX 01 00:30:55
  TRACK 19 AUDIO
    TITLE "0:"
    INDEX 01 00:32:11
  TRACK 20 AUDIO
    TITLE "3:cjc039_4890"
    INDEX 01 00:32:62
  TRACK 21 AUDIO
    TITLE "0:"
    INDEX 01 00:36:15
  TRACK 22 AUDIO
    TITLE "2:cjc039_4891"
    INDEX 01 00:37:63
  TRACK 23 AUDIO
    TITLE "0:"
    INDEX 01 00:39:00
  TRACK 24 AUDIO
    TITLE "3:cjc039_4892"
    INDEX 01 00:39:47
  TRACK 25 AUDIO
    TITLE "0:"
    INDEX 01 00:42:55
  TRACK 26 AUDIO
    TITLE "2:cjc039_4893"
    INDEX 01 00:44:28
  TRACK 27 AUDIO
    TITLE "0:"
    INDEX 01 00:45:20
  TRACK 28 AUDIO
    TITLE "3:cjc039_4894"
    INDEX 01 00:45:69
  TRACK 29 AUDIO
    TITLE "0:"
    INDEX 01 00:49:04
  TRACK 30 AUDIO
    TITLE "2:cjc039_4895"
    INDEX 01 00:50:52
  TRACK 31 AUDIO
    TITLE "0:"
    INDEX 01 00:52:22
  TRACK 32 AUDIO
    TITLE "3:cjc039_4896"
    INDEX 01 00:52:71
  TRACK 33 AUDIO
    TITLE "0:"
    INDEX 01 00:56:14
  TRACK 34 AUDIO
    TITLE "2:cjc039_4897"
    INDEX 01 00:57:66
  TRACK 35 AUDIO
    TITLE "0:"
    INDEX 01 00:58:66
  TRACK 36 AUDIO
    TITLE "3:cjc039_4898"
    INDEX 01 00:59:43
  TRACK 37 AUDIO
    TITLE "0:"
    INDEX 01 01:03:00
  TRACK 38 AUDIO
    TITLE "2:cjc039_4899"
    INDEX 01 01:04:54
  TRACK 39 AUDIO
    TITLE "0:"
    INDEX 01 01:06:22
  TRACK 40 AUDIO
    TITLE "3:cjc039_4900"
    INDEX 01 01:06:67
  TRACK 41 AUDIO
    TITLE "0:"
    INDEX 01 01:10:59
  TRACK 42 AUDIO
    TITLE "2:cjc039_4901"
    INDEX 01 01:12:30
  TRACK 43 AUDIO
    TITLE "0:"
    INDEX 01 01:13:34
  TRACK 44 AUDIO
    TITLE "3:cjc039_4902"
    INDEX 01 01:14:12
  TRACK 45 AUDIO
    TITLE "0:"
    INDEX 01 01:16:71
  TRACK 46 AUDIO
    TITLE "2:cjc039_4903"
    INDEX 01 01:18:47
  TRACK 47 AUDIO
    TITLE "0:"
    INDEX 01 01:19:70
  TRACK 48 AUDIO
    TITLE "3:cjc039_4904"
    INDEX 01 01:20:44
  TRACK 49 AUDIO
    TITLE "0:"
    INDEX 01 01:25:06
  TRACK 50 AUDIO
    TITLE "2:cjc039_4905"
    INDEX 01 01:26:52
  TRACK 51 AUDIO
    TITLE "0:"
    INDEX 01 01:27:53
  TRACK 52 AUDIO
    TITLE "3:cjc039_4906"
    INDEX 01 01:28:29
  TRACK 53 AUDIO
    TITLE "0:"
    INDEX 01 01:31:59
  TRACK 54 AUDIO
    TITLE "2:cjc039_4907"
    INDEX 01 01:33:36
  TRACK 55 AUDIO
    TITLE "0:"
    INDEX 01 01:34:54
  TRACK 56 AUDIO
    TITLE "3:cjc039_4908"
    INDEX 01 01:35:29
  TRACK 57 AUDIO
    TITLE "0:"
    INDEX 01 01:38:34
  TRACK 58 AUDIO
    TITLE "2:cjc039_4909"
    INDEX 01 01:40:05
  TRACK 59 AUDIO
    TITLE "0:"
    INDEX 01 01:41:14
  TRACK 60 AUDIO
    TITLE "3:cjc039_4910"
    INDEX 01 01:41:71
  TRACK 61 AUDIO
    TITLE "0:"
    INDEX 01 01:44:44
  TRACK 62 AUDIO
    TITLE "2:cjc039_4911"
    INDEX 01 01:46:23
  TRACK 63 AUDIO
    TITLE "0:"
    INDEX 01 01:47:29
  TRACK 64 AUDIO
    TITLE "3:cjc039_4912"
    INDEX 01 01:48:07
  TRACK 65 AUDIO
    TITLE "0:"
    INDEX 01 01:51:15
  TRACK 66 AUDIO
    TITLE "2:cjc039_4913"
    INDEX 01 01:52:71
  TRACK 67 AUDIO
    TITLE "0:"
    INDEX 01 01:54:09
  TRACK 68 AUDIO
    TITLE "3:cjc039_4914"
    INDEX 01 01:54:60
  TRACK 69 AUDIO
    TITLE "0:"
    INDEX 01 01:58:03
  TRACK 70 AUDIO
    TITLE "2:cjc039_4915"
    INDEX 01 01:59:53
  TRACK 71 AUDIO
    TITLE "0:"
    INDEX 01 02:01:31
  TRACK 72 AUDIO
    TITLE "3:cjc039_4916"
    INDEX 01 02:02:05
  TRACK 73 AUDIO
    TITLE "0:"
    INDEX 01 02:06:54
  TRACK 74 AUDIO
    TITLE "2:cjc039_4917"
    INDEX 01 02:08:33
  TRACK 75 AUDIO
    TITLE "0:"
    INDEX 01 02:09:42
  TRACK 76 AUDIO
    TITLE "3:cjc039_4918"
    INDEX 01 02:10:16
  TRACK 77 AUDIO
    TITLE "0:"
    INDEX 01 02:13:20
  TRACK 78 AUDIO
    TITLE "2:cjc039_4919"
    INDEX 01 02:15:00
  TRACK 79 AUDIO
    TITLE "0:"
    INDEX 01 02:16:26
  TRACK 80 AUDIO
    TITLE "3:cjc039_4920"
    INDEX 01 02:17:06
  TRACK 81 AUDIO
    TITLE "0:"
    INDEX 01 02:19:72
